Coordinates
version=1
nRows=24
nColumns=24
inDegrees=yes

Units are S.I. units (second, meters, Newtons, ...)
Angles are in degrees.

endheader
time	pelvis_tilt	pelvis_list	pelvis_rotation	pelvis_tx	pelvis_ty	pelvis_tz	hip_flexion_r	hip_adduction_r	hip_rotation_r	knee_angle_r	ankle_angle_r	subtalar_angle_r	mtp_angle_r	hip_flexion_l	hip_adduction_l	hip_rotation_l	knee_angle_l	ankle_angle_l	subtalar_angle_l	mtp_angle_l	lumbar_extension	lumbar_bending	lumbar_rotation
      1.59000000	     13.48797999	     -8.38975090	      3.38921079	     -0.23038193	      0.96094273	     -0.03706975	      5.57760933	      7.62712345	    -15.22680492	    -26.45723525	     12.60192510	    -19.92549897	     21.90556294	    -20.62054295	     -5.40772216	    -10.37819263	     -7.85895667	     25.13342782	     -4.54412325	     10.20777758	    -21.33109416	      9.09961327	      2.95114382
      1.59500000	     13.79366365	     -8.63153828	      3.79103621	     -0.22427083	      0.96058512	     -0.03728760	      4.85340111	      8.04235611	    -16.01492448	    -23.80905813	     12.27147692	    -19.17043124	     22.36699862	    -21.27269507	     -5.83767299	    -10.41417406	     -7.92338928	     25.48738774	     -4.20842082	     10.02595378	    -21.54004831	      9.48583450	      2.75041081
      1.60000000	     14.08022897	     -8.82971388	      4.15192823	     -0.21813036	      0.96011378	     -0.03741051	      4.14446158	      8.43542471	    -16.78177369	    -21.16824122	     11.87394190	    -18.23542588	     23.00011180	    -21.91160840	     -6.21486900	    -10.48697497	     -7.98737913	     25.89684948	     -3.88164659	      9.82321888	    -21.72814096	      9.80912372	      2.54134050
      1.60500000	     14.31900602	     -8.97273533	      4.50862439	     -0.21197337	      0.95948742	     -0.03748855	      3.48486985	      8.78804308	    -17.58637340	    -18.54024671	     11.49181016	    -17.16138279	     23.74979989	    -22.48529134	     -6.54370548	    -10.52620105	     -8.07944135	     26.28684391	     -3.57517463	      9.62569856	    -21.86062775	     10.06863097	      2.31740057
      1.61000000	     14.53903383	     -9.06405816	      4.86084452	     -0.20580497	      0.95875483	     -0.03752881	      2.83798761	      9.10999146	    -18.40987164	    -15.92030818	     11.09870891	    -15.95031952	     24.60356386	    -23.03053457	     -6.82598812	    -10.54041888	     -8.18922711	     26.67199846	     -3.26914845	      9.44490040	    -21.97037443	     10.27117801	      2.08715441
      1.61500000	     14.70490835	     -9.10029939	      5.19872477	     -0.19960119	      0.95787738	     -0.03748670	      2.24864009	      9.39651173	    -19.24070236	    -13.33665716	     10.74932401	    -14.62276745	     25.34226563	    -23.50631984	     -7.05771768	    -10.55321580	     -8.32730002	     26.98428107	     -2.99274405	      9.32791349	    -22.01881045	     10.40383036	      1.82235997
      1.62000000	     14.75958043	     -9.07668038	      5.48441028	     -0.19346892	      0.95678050	     -0.03733632	      1.81422963	      9.62275969	    -20.02745831	    -10.84656611	     10.14036075	    -13.39480546	     28.15287906	    -23.83756363	     -7.21604850	    -10.52539619	     -8.52767776	     27.45344465	     -2.68686726	      8.79908852	    -21.96162299	     10.44810983	      1.56628437
      1.62500000	     14.84151289	     -9.01034244	      5.72267831	     -0.18732714	      0.95565193	     -0.03708669	      1.36668988	      9.82374306	    -20.75449995	     -8.47375609	      9.81562305	    -11.85887954	     28.44055859	    -24.22953682	     -7.31389939	    -10.52546708	     -8.68128667	     27.77718912	     -2.48430690	      8.82006447	    -21.94608877	     10.42924996	      1.34967406
      1.63000000	     14.83158452	     -8.88841307	      5.91197842	     -0.18125286	      0.95434674	     -0.03675734	      1.07766888	      9.94840254	    -21.48529491	     -6.29133368	      9.54526042	    -10.18091240	     28.90068850	    -24.49918601	     -7.34027325	    -10.50816389	     -8.89226252	     28.11850178	     -2.28657144	      8.83168067	    -21.84835630	     10.33053300	      1.14872349
      1.63500000	     14.74842700	     -8.73416829	      6.04971025	     -0.17521703	      0.95291066	     -0.03633268	      0.91320307	     10.02905999	    -22.14828800	     -4.27058950	      9.30687925	     -8.49539066	     29.48360425	    -24.68664834	     -7.31464313	    -10.47819953	     -9.12344338	     28.46182999	     -2.13914046	      8.83252667	    -21.68477539	     10.17736254	      0.95406600
      1.64000000	     14.61246078	     -8.54934206	      6.15366424	     -0.16924521	      0.95138405	     -0.03583703	      0.84741648	     10.06721901	    -22.75770516	     -2.40251989	      9.06284470	     -6.85565412	     30.08321022	    -24.79931312	     -7.24843762	    -10.43706597	     -9.39649780	     28.79716603	     -2.00155599	      8.84079117	    -21.48067225	      9.97599668	      0.77991944
      1.64500000	     14.44911565	     -8.34873804	      6.22474674	     -0.16330126	      0.94979879	     -0.03526947	      0.84360277	     10.08065015	    -23.29621132	     -0.67659067	      8.83040888	     -5.27820008	     30.65867340	    -24.87998518	     -7.15674025	    -10.40523865	     -9.68616363	     29.12129333	     -1.86752193	      8.86018995	    -21.25861008	      9.74367232	      0.63339785
      1.65000000	     14.25143316	     -8.14080994	      6.27345137	     -0.15739059	      0.94815916	     -0.03464337	      0.90708063	     10.07468877	    -23.75983257	      0.90767861	      8.61211873	     -3.79806160	     31.15899406	    -24.91065399	     -7.05269397	    -10.36837953	    -10.00814874	     29.43994938	     -1.73503101	      8.90005642	    -21.00871063	      9.49281002	      0.50042037
      1.65500000	     14.02119489	     -7.92406462	      6.31822596	     -0.15152842	      0.94647556	     -0.03398722	      1.03435955	     10.04465252	    -24.14045802	      2.35026215	      8.39733489	     -2.49463703	     31.50649387	    -24.88128055	     -6.94406084	    -10.31135763	    -10.37900290	     29.80155118	     -1.58441414	      8.97008813	    -20.73276084	      9.22861483	      0.35823141
      1.66000000	     13.76719793	     -7.74963373	      6.34725808	     -0.14560622	      0.94477395	     -0.03330371	      1.19905753	     10.04689630	    -24.44407418	      3.67389808	      8.18020514	     -1.30662931	     31.77163651	    -24.83393107	     -6.87140114	    -10.27205699	    -10.74512699	     30.07447408	     -1.47636913	      9.04215426	    -20.42492395	      9.00581180	      0.25906215
      1.66500000	     13.57552463	     -7.53169105	      6.35827157	     -0.13973432	      0.94316640	     -0.03262305	      1.33207226	      9.98427440	    -24.74598500	      4.81154816	      8.03692693	     -0.09283704	     32.08779234	    -24.86625190	     -6.74708890	    -10.22433479	    -11.09272350	     30.35647808	     -1.36572883	      9.14839749	    -20.20214270	      8.73841330	      0.16804018
      1.67000000	     13.33843965	     -7.35833476	      6.38877022	     -0.13379504	      0.94153364	     -0.03195013	      1.51482158	      9.95439483	    -24.93833315	      5.84638131	      7.84497996	      0.80098460	     32.29767147	    -24.83406234	     -6.67984702	    -10.16144471	    -11.47119111	     30.60501629	     -1.26443888	      9.26663036	    -19.91702193	      8.52371701	      0.06647896
      1.67500000	     13.13902374	     -7.20547880	      6.43343376	     -0.12785407	      0.93997854	     -0.03130678	      1.67503919	      9.92986263	    -25.10222101	      6.73481306	      7.67265479	      1.59906773	     32.46998720	    -24.83557754	     -6.64396782	    -10.07612386	    -11.86109625	     30.79821025	     -1.13738738	      9.39998771	    -19.67325315	      8.34082565	     -0.01203491
      1.68000000	     12.97576859	     -7.06131866	      6.49213192	     -0.12186897	      0.93850575	     -0.03071452	      1.82231152	      9.89430455	    -25.29172145	      7.44866660	      7.55210307	      2.35949237	     32.67282397	    -24.88182386	     -6.62188615	     -9.98465128	    -12.24021138	     31.02730711	     -1.03882881	      9.59874687	    -19.46591738	      8.18032470	     -0.12234530
      1.68500000	     12.84324288	     -6.96235285	      6.57950286	     -0.11582361	      0.93711515	     -0.03016431	      1.92806264	      9.89572711	    -25.37730129	      8.06445179	      7.37824147	      2.84407440	     32.78723199	    -24.95484195	     -6.66243757	     -9.85710884	    -12.62918896	     31.16036100	     -0.92173822	      9.76737298	    -19.27923761	      8.08200323	     -0.20977093
      1.69000000	     12.73221298	     -6.87864527	      6.68779634	     -0.10971995	      0.93581261	     -0.02967893	      2.03199365	      9.89262602	    -25.49224178	      8.51508621	      7.22015560	      3.24454031	     32.89813496	    -25.04970434	     -6.72786432	     -9.72003236	    -13.01852965	     31.30748339	     -0.80490419	      9.96392354	    -19.10954504	      8.01494672	     -0.32043614
      1.69500000	     12.67384865	     -6.85364133	      6.84177416	     -0.10354979	      0.93462322	     -0.02929032	      2.10376659	      9.92946453	    -25.62116328	      8.79870394	      7.11748289	      3.59421742	     33.05707593	    -25.18500539	     -6.87719290	     -9.55519026	    -13.43263317	     31.41799737	     -0.68548212	     10.26500828	    -18.98138374	      8.03790453	     -0.46960306
      1.70000000	     12.64416060	     -6.81710006	      6.93722351	     -0.09732145	      0.93353566	     -0.02886200	      2.13156001	      9.94063268	    -25.58872483	      8.97296361	      6.95272288	      3.72674365	     33.09487962	    -25.38135880	     -6.98388053	     -9.41874407	    -13.81054874	     31.50194447	     -0.65378383	     10.37813474	    -18.89081098	      8.03709968	     -0.53163756
      1.70500000	     12.66148287	     -6.86933723	      7.18259188	     -0.09101268	      0.93257229	     -0.02864164	      2.14095649	     10.03191307	    -25.72037689	      8.99800865	      6.75579801	      3.73205279	     33.18330444	    -25.57696880	     -7.25739438	     -9.16588045	    -14.24032482	     31.55417330	     -0.50508525	     10.62899441	    -18.81621479	      8.18668294	     -0.72807188
